<?xml version="1.0" standalone="no"?>
<!DOCTYPE svg PUBLIC "-//W3C//DTD SVG 20010904//EN"
 "http://www.w3.org/TR/2001/REC-SVG-20010904/DTD/svg10.dtd">
<svg version="1.0" xmlns="http://www.w3.org/2000/svg"
 width="206.000000pt" height="290.000000pt" viewBox="0 0 206.000000 290.000000"
 preserveAspectRatio="xMidYMid meet">

<g transform="translate(0.000000,290.000000) scale(0.100000,-0.100000)"
fill="#000000" stroke="none">
<path d="M810 2598 c-6 -18 -31 -89 -55 -158 -24 -69 -68 -195 -98 -280 -70
-197 -305 -867 -361 -1025 l-42 -120 -77 -3 -77 -3 0 -99 0 -100 290 0 290 0
0 100 0 100 -84 0 c-47 0 -87 4 -91 9 -7 12 125 403 139 413 6 4 162 8 346 8
184 0 340 -4 346 -8 13 -8 153 -403 147 -414 -2 -5 -35 -8 -74 -8 l-69 0 0
-100 0 -100 290 0 290 0 0 100 0 100 -85 0 c-74 0 -86 2 -95 20 -6 11 -59 160
-120 332 -60 172 -183 526 -274 786 -91 261 -166 476 -166 478 0 2 -81 4 -179
4 l-179 0 -12 -32z m323 -556 c75 -218 137 -400 137 -404 0 -10 -560 -10 -560
0 -1 15 273 802 279 802 3 0 68 -179 144 -398z"/>
<path d="M92 533 l3 -78 915 0 915 0 3 78 3 77 -921 0 -921 0 3 -77z"/>
<path d="M96 241 c-4 -5 3 -7 14 -4 23 6 26 13 6 13 -8 0 -17 -4 -20 -9z"/>
<path d="M168 243 c7 -3 16 -2 19 1 4 3 -2 6 -13 5 -11 0 -14 -3 -6 -6z"/>
<path d="M260 210 c0 -44 19 -61 45 -40 31 25 12 80 -27 80 -14 0 -18 -8 -18
-40z m45 -5 c0 -20 -6 -31 -17 -33 -15 -3 -18 4 -18 33 0 29 3 36 18 33 11 -2
17 -13 17 -33z"/>
<path d="M513 210 c0 -25 2 -35 4 -22 2 12 2 32 0 45 -2 12 -4 2 -4 -23z"/>
<path d="M781 203 c1 -27 4 -38 6 -26 2 13 13 24 26 26 l22 4 -22 2 c-27 1
-31 27 -5 34 13 4 11 5 -5 6 -21 1 -23 -3 -22 -46z"/>
<path d="M201 224 c0 -11 3 -14 6 -6 3 7 2 16 -1 19 -3 4 -6 -2 -5 -13z"/>
<path d="M345 221 c-3 -7 0 -8 9 -5 9 3 16 1 16 -4 0 -6 -8 -13 -17 -15 -13
-3 -12 -5 5 -6 17 -1 23 4 20 16 -4 20 -24 28 -33 14z"/>
<path d="M454 216 c-8 -22 -1 -49 14 -52 7 -1 8 0 2 3 -16 7 -12 21 8 26 16 4
16 5 0 6 -10 0 -18 6 -18 12 0 6 7 9 15 5 8 -3 15 -1 15 4 0 16 -30 12 -36 -4z"/>
<path d="M548 223 c7 -3 16 -2 19 1 4 3 -2 6 -13 5 -11 0 -14 -3 -6 -6z"/>
<path d="M673 224 c24 -8 22 -28 -3 -21 -13 3 -20 0 -20 -9 0 -10 6 -11 23 -5
27 10 29 35 2 38 -16 1 -16 1 -2 -3z"/>
<path d="M854 216 c-9 -24 0 -51 19 -54 9 -2 17 1 17 7 0 6 -7 8 -15 5 -11 -5
-15 1 -15 21 0 20 4 26 15 21 8 -3 15 -1 15 4 0 16 -30 12 -36 -4z"/>
<path d="M910 195 c0 -19 2 -35 4 -35 2 0 6 16 8 35 2 19 0 35 -4 35 -4 0 -8
-16 -8 -35z"/>
<path d="M978 223 c7 -3 16 -2 19 1 4 3 -2 6 -13 5 -11 0 -14 -3 -6 -6z"/>
<path d="M1023 224 c10 -3 17 -15 17 -31 0 -18 -4 -24 -15 -19 -8 3 -15 1 -15
-5 0 -6 8 -9 18 -7 26 5 24 62 -3 65 -16 1 -16 1 -2 -3z"/>
<path d="M1092 200 c0 -19 2 -27 5 -17 2 9 2 25 0 35 -3 9 -5 1 -5 -18z"/>
<path d="M1127 223 c-11 -10 -8 -51 4 -59 6 -3 16 -1 22 5 9 9 8 11 -5 6 -15
-6 -18 -2 -18 20 0 20 4 26 16 21 8 -3 12 -2 9 4 -7 12 -19 13 -28 3z"/>
<path d="M115 210 c-3 -5 -1 -10 4 -10 6 0 11 5 11 10 0 6 -2 10 -4 10 -3 0
-8 -4 -11 -10z"/>
<path d="M531 194 c0 -11 3 -14 6 -6 3 7 2 16 -1 19 -3 4 -6 -2 -5 -13z"/>
<path d="M571 194 c0 -11 3 -14 6 -6 3 7 2 16 -1 19 -3 4 -6 -2 -5 -13z"/>
<path d="M631 194 c0 -11 3 -14 6 -6 3 7 2 16 -1 19 -3 4 -6 -2 -5 -13z"/>
<path d="M200 191 c0 -6 -10 -16 -22 -21 -16 -6 -18 -9 -7 -9 19 -1 45 26 35
36 -3 3 -6 1 -6 -6z"/>
<path d="M416 185 c-9 -26 -7 -32 5 -12 6 10 9 21 6 23 -2 3 -7 -2 -11 -11z"/>
<path d="M90 181 c0 -10 19 -25 25 -20 1 2 -3 10 -11 17 -8 7 -14 8 -14 3z"/>
<path d="M350 166 c7 -7 13 -7 20 0 6 6 3 10 -10 10 -13 0 -16 -4 -10 -10z"/>
<path d="M607 169 c7 -7 15 -10 18 -7 3 3 -2 9 -12 12 -14 6 -15 5 -6 -5z"/>
<path d="M548 163 c7 -3 16 -2 19 1 4 3 -2 6 -13 5 -11 0 -14 -3 -6 -6z"/>
<path d="M668 163 c7 -3 16 -2 19 1 4 3 -2 6 -13 5 -11 0 -14 -3 -6 -6z"/>
</g>
</svg>
